<svg xmlns="http://www.w3.org/2000/svg" width="953.037109375" height="1015.6578369140625" viewBox="-284.1395568847656 -598.4075927734375 953.037109375 1015.6578369140625"><title>Neo4j Graph Visualization</title><desc>Created using Neo4j (http://www.neo4j.com/)</desc><g class="layer relationships"><g class="relationship" transform="translate(319.87373442421693 91.14763735636453) rotate(273.33932201932015)"><path class="b-outline" fill="#D9C8AE" stroke="none" d="M 32.5 0.5 L 51.25089855413381 0.5 L 51.25089855413381 -0.5 L 32.5 -0.5 Z M 105.25871105413381 0.5 L 124.00960960826762 0.5 L 124.00960960826762 3.5 L 131.00960960826762 0 L 124.00960960826762 -3.5 L 124.00960960826762 -0.5 L 105.25871105413381 -0.5 Z"/><text text-anchor="middle" pointer-events="none" font-size="8px" fill="#000000" x="78.25480480413381" y="3" font-family="Helvetica Neue, Helvetica, Arial, sans-serif">EVENT_FOR</text></g><g class="relationship" transform="translate(328.9611653271126 -64.59707969596172) rotate(242.16565793424286)"><path class="b-outline" fill="#D9C8AE" stroke="none" d="M 25 0.5 L 169.92176112151347 0.5 L 169.92176112151347 -0.5 L 25 -0.5 Z M 202.14441737151347 0.5 L 347.06617849302694 0.5 L 347.06617849302694 3.5 L 354.06617849302694 0 L 347.06617849302694 -3.5 L 347.06617849302694 -0.5 L 202.14441737151347 -0.5 Z"/><text text-anchor="middle" pointer-events="none" font-size="8px" fill="#000000" x="186.03308924651347" y="3" transform="rotate(180 186.03308924651347 0)" font-family="Helvetica Neue, Helvetica, Arial, sans-serif">TR_OF</text></g><g class="relationship" transform="translate(148.46693829967415 -406.4380432513412) rotate(458.8198951575555)"><path class="b-outline" fill="#D9C8AE" stroke="none" d="M 32.5 0.5 L 98.87076537129433 0.5 L 98.87076537129433 -0.5 L 32.5 -0.5 Z M 147.99185912129434 0.5 L 214.36262449258865 0.5 L 214.36262449258865 3.5 L 221.36262449258865 0 L 214.36262449258865 -3.5 L 214.36262449258865 -0.5 L 147.99185912129434 -0.5 Z"/><text text-anchor="middle" pointer-events="none" font-size="8px" fill="#000000" x="123.43131224629433" y="3" transform="rotate(180 123.43131224629433 0)" font-family="Helvetica Neue, Helvetica, Arial, sans-serif">ROLE_FOR</text></g><g class="relationship" transform="translate(430.20279362960696 112.85590252070541) rotate(240.29409643089008)"><path class="b-outline" fill="#D9C8AE" stroke="none" d="M 32.5 0.5 L 75.39724180880695 0.5 L 75.39724180880695 -0.5 L 32.5 -0.5 Z M 129.40505430880694 0.5 L 172.3022961176139 0.5 L 172.3022961176139 3.5 L 179.3022961176139 0 L 172.3022961176139 -3.5 L 172.3022961176139 -0.5 L 129.40505430880694 -0.5 Z"/><text text-anchor="middle" pointer-events="none" font-size="8px" fill="#000000" x="102.40114805880695" y="3" transform="rotate(180 102.40114805880695 0)" font-family="Helvetica Neue, Helvetica, Arial, sans-serif">EVENT_FOR</text></g><g class="relationship" transform="translate(491.7707615853323 17.666638732604177) rotate(206.80635678615846)"><path class="b-outline" fill="#D9C8AE" stroke="none" d="M 32.5 0.5 L 64.45229420185919 0.5 L 64.45229420185919 -0.5 L 32.5 -0.5 Z M 118.46010670185919 0.5 L 150.41240090371838 0.5 L 150.41240090371838 3.5 L 157.41240090371838 0 L 150.41240090371838 -3.5 L 150.41240090371838 -0.5 L 118.46010670185919 -0.5 Z"/><text text-anchor="middle" pointer-events="none" font-size="8px" fill="#000000" x="91.45620045185919" y="3" transform="rotate(180 91.45620045185919 0)" font-family="Helvetica Neue, Helvetica, Arial, sans-serif">EVENT_FOR</text></g><g class="relationship" transform="translate(328.9611653271126 -64.59707969596172) rotate(539.3952071646816)"><path class="b-outline" fill="#D9C8AE" stroke="none" d="M 25 0.5 L 141.28734886323235 0.5 L 141.28734886323235 -0.5 L 25 -0.5 Z M 173.51000511323235 0.5 L 289.7973539764647 0.5 L 289.7973539764647 3.5 L 296.7973539764647 0 L 289.7973539764647 -3.5 L 289.7973539764647 -0.5 L 173.51000511323235 -0.5 Z"/><text text-anchor="middle" pointer-events="none" font-size="8px" fill="#000000" x="157.39867698823235" y="3" transform="rotate(180 157.39867698823235 0)" font-family="Helvetica Neue, Helvetica, Arial, sans-serif">TR_OF</text></g><g class="relationship" transform="translate(-0.3178434589599141 -61.12120444465245) rotate(317.45927625454556)"><path class="b-outline" fill="#D9C8AE" stroke="none" d="M 32.5 0.5 L 51.02245399874576 0.5 L 51.02245399874576 -0.5 L 32.5 -0.5 Z M 100.14354774874576 0.5 L 118.66600174749152 0.5 L 118.66600174749152 3.5 L 125.66600174749152 0 L 118.66600174749152 -3.5 L 118.66600174749152 -0.5 L 100.14354774874576 -0.5 Z"/><text text-anchor="middle" pointer-events="none" font-size="8px" fill="#000000" x="75.58300087374576" y="3" font-family="Helvetica Neue, Helvetica, Arial, sans-serif">ROLE_FOR</text></g><g class="relationship" transform="translate(328.9611653271126 -64.59707969596172) rotate(439.58871740361764)"><path class="b-outline" fill="#D9C8AE" stroke="none" d="M 25 0.5 L 121.72061707073831 0.5 L 121.72061707073831 -0.5 L 25 -0.5 Z M 153.9432733207383 0.5 L 250.66389039147663 0.5 L 250.66389039147663 3.5 L 257.6638903914766 0 L 250.66389039147663 -3.5 L 250.66389039147663 -0.5 L 153.9432733207383 -0.5 Z"/><text text-anchor="middle" pointer-events="none" font-size="8px" fill="#000000" x="137.8319451957383" y="3" font-family="Helvetica Neue, Helvetica, Arial, sans-serif">TR_OF</text></g><g class="relationship" transform="translate(381.39750170866427 220.78952460423596) rotate(465.7929429130727)"><path class="b-outline" fill="#D9C8AE" stroke="none" d="M 32.5 0.5 L 62.704477062160024 0.5 L 62.704477062160024 -0.5 L 32.5 -0.5 Z M 111.82557081216002 0.5 L 142.03004787432005 0.5 L 142.03004787432005 3.5 L 149.03004787432005 0 L 142.03004787432005 -3.5 L 142.03004787432005 -0.5 L 111.82557081216002 -0.5 Z"/><text text-anchor="middle" pointer-events="none" font-size="8px" fill="#000000" x="87.26502393716002" y="3" transform="rotate(180 87.26502393716002 0)" font-family="Helvetica Neue, Helvetica, Arial, sans-serif">ROLE_FOR</text></g><g class="relationship" transform="translate(-0.3178434589599141 -61.12120444465245) rotate(482.1374997790695)"><path class="b-outline" fill="#D9C8AE" stroke="none" d="M 32.5 0.5 L 76.55481983476781 0.5 L 76.55481983476781 -0.5 L 32.5 -0.5 Z M 125.67591358476781 0.5 L 169.73073341953562 0.5 L 169.73073341953562 3.5 L 176.73073341953562 0 L 169.73073341953562 -3.5 L 169.73073341953562 -0.5 L 125.67591358476781 -0.5 Z"/><text text-anchor="middle" pointer-events="none" font-size="8px" fill="#000000" x="101.11536670976781" y="3" transform="rotate(180 101.11536670976781 0)" font-family="Helvetica Neue, Helvetica, Arial, sans-serif">ROLE_FOR</text></g><g class="relationship" transform="translate(-0.3178434589599141 -61.12120444465245) rotate(461.7319280037656)"><path class="b-outline" fill="#D9C8AE" stroke="none" d="M 32.5 0.5 L 103.16760498029018 0.5 L 103.16760498029018 -0.5 L 32.5 -0.5 Z M 152.28869873029018 0.5 L 222.95630371058036 0.5 L 222.95630371058036 3.5 L 229.95630371058036 0 L 222.95630371058036 -3.5 L 222.95630371058036 -0.5 L 152.28869873029018 -0.5 Z"/><text text-anchor="middle" pointer-events="none" font-size="8px" fill="#000000" x="127.72815185529018" y="3" transform="rotate(180 127.72815185529018 0)" font-family="Helvetica Neue, Helvetica, Arial, sans-serif">ROLE_FOR</text></g><g class="relationship" transform="translate(-0.3178434589599141 -61.12120444465245) rotate(264.53181822163873)"><path class="b-outline" fill="#D9C8AE" stroke="none" d="M 32.5 0.5 L 139.89830059722757 0.5 L 139.89830059722757 -0.5 L 32.5 -0.5 Z M 189.01939434722757 0.5 L 296.41769494445515 0.5 L 296.41769494445515 3.5 L 303.41769494445515 0 L 296.41769494445515 -3.5 L 296.41769494445515 -0.5 L 189.01939434722757 -0.5 Z"/><text text-anchor="middle" pointer-events="none" font-size="8px" fill="#000000" x="164.45884747222757" y="3" transform="rotate(180 164.45884747222757 0)" font-family="Helvetica Neue, Helvetica, Arial, sans-serif">ROLE_FOR</text></g><g class="relationship" transform="translate(148.46693829967415 -406.4380432513412) rotate(534.1679571298923)"><path class="b-outline" fill="#D9C8AE" stroke="none" d="M 32.5 0.5 L 66.19826164442594 0.5 L 66.19826164442594 -0.5 L 32.5 -0.5 Z M 115.31935539442594 0.5 L 149.01761703885188 0.5 L 149.01761703885188 3.5 L 156.01761703885188 0 L 149.01761703885188 -3.5 L 149.01761703885188 -0.5 L 115.31935539442594 -0.5 Z"/><text text-anchor="middle" pointer-events="none" font-size="8px" fill="#000000" x="90.75880851942594" y="3" transform="rotate(180 90.75880851942594 0)" font-family="Helvetica Neue, Helvetica, Arial, sans-serif">ROLE_FOR</text></g><g class="relationship" transform="translate(-0.3178434589599141 -61.12120444465245) rotate(357.1376656696957)"><path class="b-outline" fill="#D9C8AE" stroke="none" d="M 32.5 0.5 L 34.55646441640161 0.5 L 34.55646441640161 -0.5 L 32.5 -0.5 Z M 70.34162066640161 0.5 L 72.39808508280322 0.5 L 72.39808508280322 3.5 L 79.39808508280322 0 L 72.39808508280322 -3.5 L 72.39808508280322 -0.5 L 70.34162066640161 -0.5 Z"/><text text-anchor="middle" pointer-events="none" font-size="8px" fill="#000000" x="52.44904254140161" y="3" font-family="Helvetica Neue, Helvetica, Arial, sans-serif">ROLE…</text></g><g class="relationship" transform="translate(-0.3178434589599141 -61.12120444465245) rotate(438.86824031350505)"><path class="b-outline" fill="#D9C8AE" stroke="none" d="M 32.5 0.5 L 98.41272896304656 0.5 L 98.41272896304656 -0.5 L 32.5 -0.5 Z M 147.53382271304656 0.5 L 213.44655167609312 0.5 L 213.44655167609312 3.5 L 220.44655167609312 0 L 213.44655167609312 -3.5 L 213.44655167609312 -0.5 L 147.53382271304656 -0.5 Z"/><text text-anchor="middle" pointer-events="none" font-size="8px" fill="#000000" x="122.97327583804656" y="3" font-family="Helvetica Neue, Helvetica, Arial, sans-serif">ROLE_FOR</text></g><g class="relationship" transform="translate(381.39750170866427 220.78952460423596) rotate(432.2966344751604)"><path class="b-outline" fill="#D9C8AE" stroke="none" d="M 32.5 0.5 L 61.364002340065355 0.5 L 61.364002340065355 -0.5 L 32.5 -0.5 Z M 110.48509609006535 0.5 L 139.3490984301307 0.5 L 139.3490984301307 3.5 L 146.3490984301307 0 L 139.3490984301307 -3.5 L 139.3490984301307 -0.5 L 110.48509609006535 -0.5 Z"/><text text-anchor="middle" pointer-events="none" font-size="8px" fill="#000000" x="85.92454921506535" y="3" font-family="Helvetica Neue, Helvetica, Arial, sans-serif">ROLE_FOR</text></g><g class="relationship" transform="translate(-0.3178434589599141 -61.12120444465245) rotate(307.3628213422129)"><path class="b-outline" fill="#D9C8AE" stroke="none" d="M 32.5 0.5 L 130.67387668803806 0.5 L 130.67387668803806 -0.5 L 32.5 -0.5 Z M 179.79497043803806 0.5 L 277.9688471260761 0.5 L 277.9688471260761 3.5 L 284.9688471260761 0 L 277.9688471260761 -3.5 L 277.9688471260761 -0.5 L 179.79497043803806 -0.5 Z"/><text text-anchor="middle" pointer-events="none" font-size="8px" fill="#000000" x="155.23442356303806" y="3" font-family="Helvetica Neue, Helvetica, Arial, sans-serif">ROLE_FOR</text></g><g class="relationship" transform="translate(328.9611653271126 -64.59707969596172) rotate(278.938130302551)"><path class="b-outline" fill="#D9C8AE" stroke="none" d="M 25 0.5 L 103.03415744360687 0.5 L 103.03415744360687 -0.5 L 25 -0.5 Z M 135.2568136936069 0.5 L 213.29097113721375 0.5 L 213.29097113721375 3.5 L 220.29097113721375 0 L 213.29097113721375 -3.5 L 213.29097113721375 -0.5 L 135.2568136936069 -0.5 Z"/><text text-anchor="middle" pointer-events="none" font-size="8px" fill="#000000" x="119.14548556860687" y="3" font-family="Helvetica Neue, Helvetica, Arial, sans-serif">TR_OF</text></g><g class="relationship" transform="translate(368.23675213389794 -314.31833103328444) rotate(537.8319719446076)"><path class="b-outline" fill="#D9C8AE" stroke="none" d="M 32.5 0.5 L 65.9774987145986 0.5 L 65.9774987145986 -0.5 L 32.5 -0.5 Z M 115.0985924645986 0.5 L 148.5760911791972 0.5 L 148.5760911791972 3.5 L 155.5760911791972 0 L 148.5760911791972 -3.5 L 148.5760911791972 -0.5 L 115.0985924645986 -0.5 Z"/><text text-anchor="middle" pointer-events="none" font-size="8px" fill="#000000" x="90.5380455895986" y="3" transform="rotate(180 90.5380455895986 0)" font-family="Helvetica Neue, Helvetica, Arial, sans-serif">ROLE_FOR</text></g><g class="relationship" transform="translate(148.46693829967415 -406.4380432513412) rotate(428.3271880721862)"><path class="b-outline" fill="#D9C8AE" stroke="none" d="M 32.5 0.5 L 33.37186251883644 0.5 L 33.37186251883644 -0.5 L 32.5 -0.5 Z M 73.60623751883644 0.5 L 74.47810003767287 0.5 L 74.47810003767287 3.5 L 81.47810003767287 0 L 74.47810003767287 -3.5 L 74.47810003767287 -0.5 L 73.60623751883644 -0.5 Z"/><text text-anchor="middle" pointer-events="none" font-size="8px" fill="#000000" x="53.48905001883644" y="3" font-family="Helvetica Neue, Helvetica, Arial, sans-serif">ROLE_…</text></g><g class="relationship" transform="translate(-0.3178434589599141 -61.12120444465245) rotate(322.3842979065513)"><path class="b-outline" fill="#D9C8AE" stroke="none" d="M 32.5 0.5 L 98.04452948045406 0.5 L 98.04452948045406 -0.5 L 32.5 -0.5 Z M 147.16562323045406 0.5 L 212.71015271090812 0.5 L 212.71015271090812 3.5 L 219.71015271090812 0 L 212.71015271090812 -3.5 L 212.71015271090812 -0.5 L 147.16562323045406 -0.5 Z"/><text text-anchor="middle" pointer-events="none" font-size="8px" fill="#000000" x="122.60507635545406" y="3" font-family="Helvetica Neue, Helvetica, Arial, sans-serif">ROLE_FOR</text></g><g class="relationship" transform="translate(368.23675213389794 -314.31833103328444) rotate(509.27634631232706)"><path class="b-outline" fill="#D9C8AE" stroke="none" d="M 32.5 0.5 L 77.30984739852649 0.5 L 77.30984739852649 -0.5 L 32.5 -0.5 Z M 126.43094114852649 0.5 L 171.24078854705297 0.5 L 171.24078854705297 3.5 L 178.24078854705297 0 L 171.24078854705297 -3.5 L 171.24078854705297 -0.5 L 126.43094114852649 -0.5 Z"/><text text-anchor="middle" pointer-events="none" font-size="8px" fill="#000000" x="101.87039427352649" y="3" transform="rotate(180 101.87039427352649 0)" font-family="Helvetica Neue, Helvetica, Arial, sans-serif">ROLE_FOR</text></g><g class="relationship" transform="translate(148.46693829967415 -406.4380432513412) rotate(437.0511335590477)"><path class="b-outline" fill="#D9C8AE" stroke="none" d="M 32.5 0.5 L 76.22348716106552 0.5 L 76.22348716106552 -0.5 L 32.5 -0.5 Z M 125.34458091106552 0.5 L 169.06806807213104 0.5 L 169.06806807213104 3.5 L 176.06806807213104 0 L 169.06806807213104 -3.5 L 169.06806807213104 -0.5 L 125.34458091106552 -0.5 Z"/><text text-anchor="middle" pointer-events="none" font-size="8px" fill="#000000" x="100.78403403606552" y="3" font-family="Helvetica Neue, Helvetica, Arial, sans-serif">ROLE_FOR</text></g><g class="relationship" transform="translate(328.9611653271126 -64.59707969596172) rotate(351.25054596761163)"><path class="b-outline" fill="#D9C8AE" stroke="none" d="M 25 0.5 L 30.313720096630796 0.5 L 30.313720096630796 -0.5 L 25 -0.5 Z M 62.536376346630796 0.5 L 67.85009644326159 0.5 L 67.85009644326159 3.5 L 74.85009644326159 0 L 67.85009644326159 -3.5 L 67.85009644326159 -0.5 L 62.536376346630796 -0.5 Z"/><text text-anchor="middle" pointer-events="none" font-size="8px" fill="#000000" x="46.425048221630796" y="3" font-family="Helvetica Neue, Helvetica, Arial, sans-serif">TR_OF</text></g><g class="relationship" transform="translate(435.06202440366906 -80.92652884754904) rotate(201.12163261767506)"><path class="b-outline" fill="#D9C8AE" stroke="none" d="M 32.5 0.5 L 64.89689777715563 0.5 L 64.89689777715563 -0.5 L 32.5 -0.5 Z M 114.01799152715563 0.5 L 146.41488930431126 0.5 L 146.41488930431126 3.5 L 153.41488930431126 0 L 146.41488930431126 -3.5 L 146.41488930431126 -0.5 L 114.01799152715563 -0.5 Z"/><text text-anchor="middle" pointer-events="none" font-size="8px" fill="#000000" x="89.45744465215563" y="3" transform="rotate(180 89.45744465215563 0)" font-family="Helvetica Neue, Helvetica, Arial, sans-serif">ROLE_FOR</text></g><g class="relationship" transform="translate(-0.3178434589599141 -61.12120444465245) rotate(342.6363365801069)"><path class="b-outline" fill="#D9C8AE" stroke="none" d="M 32.5 0.5 L 116.5857936569023 0.5 L 116.5857936569023 -0.5 L 32.5 -0.5 Z M 165.7068874069023 0.5 L 249.7926810638046 0.5 L 249.7926810638046 3.5 L 256.7926810638046 0 L 249.7926810638046 -3.5 L 249.7926810638046 -0.5 L 165.7068874069023 -0.5 Z"/><text text-anchor="middle" pointer-events="none" font-size="8px" fill="#000000" x="141.1463405319023" y="3" font-family="Helvetica Neue, Helvetica, Arial, sans-serif">ROLE_FOR</text></g><g class="relationship" transform="translate(368.23675213389794 -314.31833103328444) rotate(480.49890696081513)"><path class="b-outline" fill="#D9C8AE" stroke="none" d="M 32.5 0.5 L 73.8165115484358 0.5 L 73.8165115484358 -0.5 L 32.5 -0.5 Z M 122.9376052984358 0.5 L 164.2541168468716 0.5 L 164.2541168468716 3.5 L 171.2541168468716 0 L 164.2541168468716 -3.5 L 164.2541168468716 -0.5 L 122.9376052984358 -0.5 Z"/><text text-anchor="middle" pointer-events="none" font-size="8px" fill="#000000" x="98.3770584234358" y="3" transform="rotate(180 98.3770584234358 0)" font-family="Helvetica Neue, Helvetica, Arial, sans-serif">ROLE_FOR</text></g><g class="relationship" transform="translate(148.46693829967415 -406.4380432513412) rotate(425.29659207563543)"><path class="b-outline" fill="#D9C8AE" stroke="none" d="M 32.5 0.5 L 119.45647458473528 0.5 L 119.45647458473528 -0.5 L 32.5 -0.5 Z M 168.57756833473528 0.5 L 255.53404291947055 0.5 L 255.53404291947055 3.5 L 262.53404291947055 0 L 255.53404291947055 -3.5 L 255.53404291947055 -0.5 L 168.57756833473528 -0.5 Z"/><text text-anchor="middle" pointer-events="none" font-size="8px" fill="#000000" x="144.01702145973528" y="3" font-family="Helvetica Neue, Helvetica, Arial, sans-serif">ROLE_FOR</text></g><g class="relationship" transform="translate(148.46693829967415 -406.4380432513412) rotate(508.3982773370694)"><path class="b-outline" fill="#D9C8AE" stroke="none" d="M 32.5 0.5 L 34.12038011002998 0.5 L 34.12038011002998 -0.5 L 32.5 -0.5 Z M 74.35475511002997 0.5 L 75.97513522005995 0.5 L 75.97513522005995 3.5 L 82.97513522005995 0 L 75.97513522005995 -3.5 L 75.97513522005995 -0.5 L 74.35475511002997 -0.5 Z"/><text text-anchor="middle" pointer-events="none" font-size="8px" fill="#000000" x="54.23756761002998" y="3" transform="rotate(180 54.23756761002998 0)" font-family="Helvetica Neue, Helvetica, Arial, sans-serif">ROLE_…</text></g><g class="relationship" transform="translate(328.9611653271126 -64.59707969596172) rotate(302.5486448634724)"><path class="b-outline" fill="#D9C8AE" stroke="none" d="M 25 0.5 L 119.43462749287195 0.5 L 119.43462749287195 -0.5 L 25 -0.5 Z M 151.65728374287195 0.5 L 246.0919112357439 0.5 L 246.0919112357439 3.5 L 253.0919112357439 0 L 246.0919112357439 -3.5 L 246.0919112357439 -0.5 L 151.65728374287195 -0.5 Z"/><text text-anchor="middle" pointer-events="none" font-size="8px" fill="#000000" x="135.54595561787195" y="3" font-family="Helvetica Neue, Helvetica, Arial, sans-serif">TR_OF</text></g><g class="relationship" transform="translate(482.61403023377255 -305.3324881203577) rotate(521.8775586506395)"><path class="b-outline" fill="#D9C8AE" stroke="none" d="M 32.5 0.5 L 77.95336395930477 0.5 L 77.95336395930477 -0.5 L 32.5 -0.5 Z M 127.07445770930477 0.5 L 172.52782166860953 0.5 L 172.52782166860953 3.5 L 179.52782166860953 0 L 172.52782166860953 -3.5 L 172.52782166860953 -0.5 L 127.07445770930477 -0.5 Z"/><text text-anchor="middle" pointer-events="none" font-size="8px" fill="#000000" x="102.51391083430477" y="3" transform="rotate(180 102.51391083430477 0)" font-family="Helvetica Neue, Helvetica, Arial, sans-serif">ROLE_FOR</text></g><g class="relationship" transform="translate(435.06202440366906 -80.92652884754904) rotate(227.59795502853706)"><path class="b-outline" fill="#D9C8AE" stroke="none" d="M 32.5 0.5 L 84.56068607115006 0.5 L 84.56068607115006 -0.5 L 32.5 -0.5 Z M 133.68177982115006 0.5 L 185.74246589230012 0.5 L 185.74246589230012 3.5 L 192.74246589230012 0 L 185.74246589230012 -3.5 L 185.74246589230012 -0.5 L 133.68177982115006 -0.5 Z"/><text text-anchor="middle" pointer-events="none" font-size="8px" fill="#000000" x="109.12123294615006" y="3" transform="rotate(180 109.12123294615006 0)" font-family="Helvetica Neue, Helvetica, Arial, sans-serif">ROLE_FOR</text></g><g class="relationship" transform="translate(-0.3178434589599141 -61.12120444465245) rotate(327.95900424319717)"><path class="b-outline" fill="#D9C8AE" stroke="none" d="M 32.5 0.5 L 145.89147834387143 0.5 L 145.89147834387143 -0.5 L 32.5 -0.5 Z M 195.01257209387143 0.5 L 308.40405043774285 0.5 L 308.40405043774285 3.5 L 315.40405043774285 0 L 308.40405043774285 -3.5 L 308.40405043774285 -0.5 L 195.01257209387143 -0.5 Z"/><text text-anchor="middle" pointer-events="none" font-size="8px" fill="#000000" x="170.45202521887143" y="3" font-family="Helvetica Neue, Helvetica, Arial, sans-serif">ROLE_FOR</text></g><g class="relationship" transform="translate(368.23675213389794 -314.31833103328444) rotate(497.7763901233513)"><path class="b-outline" fill="#D9C8AE" stroke="none" d="M 32.5 0.5 L 34.15153939257249 0.5 L 34.15153939257249 -0.5 L 32.5 -0.5 Z M 74.38591439257249 0.5 L 76.03745378514498 0.5 L 76.03745378514498 3.5 L 83.03745378514498 0 L 76.03745378514498 -3.5 L 76.03745378514498 -0.5 L 74.38591439257249 -0.5 Z"/><text text-anchor="middle" pointer-events="none" font-size="8px" fill="#000000" x="54.26872689257249" y="3" transform="rotate(180 54.26872689257249 0)" font-family="Helvetica Neue, Helvetica, Arial, sans-serif">ROLE_…</text></g><g class="relationship" transform="translate(148.46693829967415 -406.4380432513412) rotate(409.68599163710155)"><path class="b-outline" fill="#D9C8AE" stroke="none" d="M 32.5 0.5 L 83.70353223162705 0.5 L 83.70353223162705 -0.5 L 32.5 -0.5 Z M 132.82462598162704 0.5 L 184.0281582132541 0.5 L 184.0281582132541 3.5 L 191.0281582132541 0 L 184.0281582132541 -3.5 L 184.0281582132541 -0.5 L 132.82462598162704 -0.5 Z"/><text text-anchor="middle" pointer-events="none" font-size="8px" fill="#000000" x="108.26407910662705" y="3" font-family="Helvetica Neue, Helvetica, Arial, sans-serif">ROLE_FOR</text></g><g class="relationship" transform="translate(-0.3178434589599141 -61.12120444465245) rotate(417.4621330550816)"><path class="b-outline" fill="#D9C8AE" stroke="none" d="M 32.5 0.5 L 33.48021169927108 0.5 L 33.48021169927108 -0.5 L 32.5 -0.5 Z M 73.71458669927108 0.5 L 74.69479839854216 0.5 L 74.69479839854216 3.5 L 81.69479839854216 0 L 74.69479839854216 -3.5 L 74.69479839854216 -0.5 L 73.71458669927108 -0.5 Z"/><text text-anchor="middle" pointer-events="none" font-size="8px" fill="#000000" x="53.59739919927108" y="3" font-family="Helvetica Neue, Helvetica, Arial, sans-serif">ROLE_…</text></g><g class="relationship" transform="translate(368.23675213389794 -314.31833103328444) rotate(399.40584294281894)"><path class="b-outline" fill="#D9C8AE" stroke="none" d="M 32.5 0.5 L 64.29305053773984 0.5 L 64.29305053773984 -0.5 L 32.5 -0.5 Z M 113.41414428773984 0.5 L 145.2071948254797 0.5 L 145.2071948254797 3.5 L 152.2071948254797 0 L 145.2071948254797 -3.5 L 145.2071948254797 -0.5 L 113.41414428773984 -0.5 Z"/><text text-anchor="middle" pointer-events="none" font-size="8px" fill="#000000" x="88.85359741273984" y="3" font-family="Helvetica Neue, Helvetica, Arial, sans-serif">ROLE_FOR</text></g><g class="relationship" transform="translate(-0.3178434589599141 -61.12120444465245) rotate(416.03262156839963)"><path class="b-outline" fill="#D9C8AE" stroke="none" d="M 32.5 0.5 L 77.45286505617368 0.5 L 77.45286505617368 -0.5 L 32.5 -0.5 Z M 126.57395880617368 0.5 L 171.52682386234736 0.5 L 171.52682386234736 3.5 L 178.52682386234736 0 L 171.52682386234736 -3.5 L 171.52682386234736 -0.5 L 126.57395880617368 -0.5 Z"/><text text-anchor="middle" pointer-events="none" font-size="8px" fill="#000000" x="102.01341193117368" y="3" font-family="Helvetica Neue, Helvetica, Arial, sans-serif">ROLE_FOR</text></g><g class="relationship" transform="translate(148.46693829967415 -406.4380432513412) rotate(468.00451183081464)"><path class="b-outline" fill="#D9C8AE" stroke="none" d="M 32.5 0.5 L 52.90516370432198 0.5 L 52.90516370432198 -0.5 L 32.5 -0.5 Z M 102.02625745432198 0.5 L 122.43142115864396 0.5 L 122.43142115864396 3.5 L 129.43142115864396 0 L 122.43142115864396 -3.5 L 122.43142115864396 -0.5 L 102.02625745432198 -0.5 Z"/><text text-anchor="middle" pointer-events="none" font-size="8px" fill="#000000" x="77.46571057932198" y="3" transform="rotate(180 77.46571057932198 0)" font-family="Helvetica Neue, Helvetica, Arial, sans-serif">ROLE_FOR</text></g><g class="relationship" transform="translate(-0.3178434589599141 -61.12120444465245) rotate(296.9856004472497)"><path class="b-outline" fill="#D9C8AE" stroke="none" d="M 32.5 0.5 L 87.03666549226269 0.5 L 87.03666549226269 -0.5 L 32.5 -0.5 Z M 136.15775924226267 0.5 L 190.69442473452537 0.5 L 190.69442473452537 3.5 L 197.69442473452537 0 L 190.69442473452537 -3.5 L 190.69442473452537 -0.5 L 136.15775924226267 -0.5 Z"/><text text-anchor="middle" pointer-events="none" font-size="8px" fill="#000000" x="111.59721236726269" y="3" font-family="Helvetica Neue, Helvetica, Arial, sans-serif">ROLE_FOR</text></g><g class="relationship" transform="translate(-0.3178434589599141 -61.12120444465245) rotate(386.7029821873517)"><path class="b-outline" fill="#D9C8AE" stroke="none" d="M 32.5 0.5 L 61.93333852989646 0.5 L 61.93333852989646 -0.5 L 32.5 -0.5 Z M 111.05443227989646 0.5 L 140.48777080979292 0.5 L 140.48777080979292 3.5 L 147.48777080979292 0 L 140.48777080979292 -3.5 L 140.48777080979292 -0.5 L 111.05443227989646 -0.5 Z"/><text text-anchor="middle" pointer-events="none" font-size="8px" fill="#000000" x="86.49388540489646" y="3" font-family="Helvetica Neue, Helvetica, Arial, sans-serif">ROLE_FOR</text></g><g class="relationship" transform="translate(368.23675213389794 -314.31833103328444) rotate(249.53258085783972)"><path class="b-outline" fill="#D9C8AE" stroke="none" d="M 32.5 0.5 L 63.754365673322624 0.5 L 63.754365673322624 -0.5 L 32.5 -0.5 Z M 112.87545942332262 0.5 L 144.12982509664525 0.5 L 144.12982509664525 3.5 L 151.12982509664525 0 L 144.12982509664525 -3.5 L 144.12982509664525 -0.5 L 112.87545942332262 -0.5 Z"/><text text-anchor="middle" pointer-events="none" font-size="8px" fill="#000000" x="88.31491254832262" y="3" transform="rotate(180 88.31491254832262 0)" font-family="Helvetica Neue, Helvetica, Arial, sans-serif">ROLE_FOR</text></g><g class="relationship" transform="translate(148.46693829967415 -406.4380432513412) rotate(335.2594119266014)"><path class="b-outline" fill="#D9C8AE" stroke="none" d="M 32.5 0.5 L 62.77357161731685 0.5 L 62.77357161731685 -0.5 L 32.5 -0.5 Z M 111.89466536731685 0.5 L 142.1682369846337 0.5 L 142.1682369846337 3.5 L 149.1682369846337 0 L 142.1682369846337 -3.5 L 142.1682369846337 -0.5 L 111.89466536731685 -0.5 Z"/><text text-anchor="middle" pointer-events="none" font-size="8px" fill="#000000" x="87.33411849231685" y="3" font-family="Helvetica Neue, Helvetica, Arial, sans-serif">ROLE_FOR</text></g><g class="relationship" transform="translate(435.06202440366906 -80.92652884754904) rotate(501.5534051171677)"><path class="b-outline" fill="#D9C8AE" stroke="none" d="M 32.5 0.5 L 116.39693383730275 0.5 L 116.39693383730275 -0.5 L 32.5 -0.5 Z M 165.51802758730275 0.5 L 249.4149614246055 0.5 L 249.4149614246055 3.5 L 256.4149614246055 0 L 249.4149614246055 -3.5 L 249.4149614246055 -0.5 L 165.51802758730275 -0.5 Z"/><text text-anchor="middle" pointer-events="none" font-size="8px" fill="#000000" x="140.95748071230275" y="3" transform="rotate(180 140.95748071230275 0)" font-family="Helvetica Neue, Helvetica, Arial, sans-serif">ROLE_FOR</text></g><g class="relationship" transform="translate(-0.3178434589599141 -61.12120444465245) rotate(395.82216906050326)"><path class="b-outline" fill="#D9C8AE" stroke="none" d="M 32.5 0.5 L 108.25550380847662 0.5 L 108.25550380847662 -0.5 L 32.5 -0.5 Z M 157.37659755847662 0.5 L 233.13210136695324 0.5 L 233.13210136695324 3.5 L 240.13210136695324 0 L 233.13210136695324 -3.5 L 233.13210136695324 -0.5 L 157.37659755847662 -0.5 Z"/><text text-anchor="middle" pointer-events="none" font-size="8px" fill="#000000" x="132.81605068347662" y="3" font-family="Helvetica Neue, Helvetica, Arial, sans-serif">ROLE_FOR</text></g><g class="relationship" transform="translate(148.46693829967415 -406.4380432513412) rotate(523.6829258898916)"><path class="b-outline" fill="#D9C8AE" stroke="none" d="M 32.5 0.5 L 109.9528266598733 0.5 L 109.9528266598733 -0.5 L 32.5 -0.5 Z M 159.0739204098733 0.5 L 236.5267470697466 0.5 L 236.5267470697466 3.5 L 243.5267470697466 0 L 236.5267470697466 -3.5 L 236.5267470697466 -0.5 L 159.0739204098733 -0.5 Z"/><text text-anchor="middle" pointer-events="none" font-size="8px" fill="#000000" x="134.5133735348733" y="3" transform="rotate(180 134.5133735348733 0)" font-family="Helvetica Neue, Helvetica, Arial, sans-serif">ROLE_FOR</text></g><g class="relationship" transform="translate(-0.3178434589599141 -61.12120444465245) rotate(248.02004989171706)"><path class="b-outline" fill="#D9C8AE" stroke="none" d="M 32.5 0.5 L 121.20287222339931 0.5 L 121.20287222339931 -0.5 L 32.5 -0.5 Z M 170.3239659733993 0.5 L 259.0268381967986 0.5 L 259.0268381967986 3.5 L 266.0268381967986 0 L 259.0268381967986 -3.5 L 259.0268381967986 -0.5 L 170.3239659733993 -0.5 Z"/><text text-anchor="middle" pointer-events="none" font-size="8px" fill="#000000" x="145.7634190983993" y="3" transform="rotate(180 145.7634190983993 0)" font-family="Helvetica Neue, Helvetica, Arial, sans-serif">ROLE_FOR</text></g><g class="relationship" transform="translate(435.06202440366906 -80.92652884754904) rotate(387.9130281928816)"><path class="b-outline" fill="#D9C8AE" stroke="none" d="M 32.5 0.5 L 68.04985633075972 0.5 L 68.04985633075972 -0.5 L 32.5 -0.5 Z M 117.17095008075972 0.5 L 152.72080641151945 0.5 L 152.72080641151945 3.5 L 159.72080641151945 0 L 152.72080641151945 -3.5 L 152.72080641151945 -0.5 L 117.17095008075972 -0.5 Z"/><text text-anchor="middle" pointer-events="none" font-size="8px" fill="#000000" x="92.61040320575972" y="3" font-family="Helvetica Neue, Helvetica, Arial, sans-serif">ROLE_FOR</text></g><g class="relationship" transform="translate(148.46693829967415 -406.4380432513412) rotate(239.43649148231037)"><path class="b-outline" fill="#D9C8AE" stroke="none" d="M 32.5 0.5 L 58.81689131122232 0.5 L 58.81689131122232 -0.5 L 32.5 -0.5 Z M 107.93798506122232 0.5 L 134.25487637244464 0.5 L 134.25487637244464 3.5 L 141.25487637244464 0 L 134.25487637244464 -3.5 L 134.25487637244464 -0.5 L 107.93798506122232 -0.5 Z"/><text text-anchor="middle" pointer-events="none" font-size="8px" fill="#000000" x="83.37743818622232" y="3" transform="rotate(180 83.37743818622232 0)" font-family="Helvetica Neue, Helvetica, Arial, sans-serif">ROLE_FOR</text></g><g class="relationship" transform="translate(-0.3178434589599141 -61.12120444465245) rotate(357.3209577847547)"><path class="b-outline" fill="#D9C8AE" stroke="none" d="M 32.5 0.5 L 75.71465124163458 0.5 L 75.71465124163458 -0.5 L 32.5 -0.5 Z M 124.83574499163458 0.5 L 168.05039623326917 0.5 L 168.05039623326917 3.5 L 175.05039623326917 0 L 168.05039623326917 -3.5 L 168.05039623326917 -0.5 L 124.83574499163458 -0.5 Z"/><text text-anchor="middle" pointer-events="none" font-size="8px" fill="#000000" x="100.27519811663458" y="3" font-family="Helvetica Neue, Helvetica, Arial, sans-serif">ROLE_FOR</text></g><g class="relationship" transform="translate(148.46693829967415 -406.4380432513412) rotate(274.586881910176)"><path class="b-outline" fill="#D9C8AE" stroke="none" d="M 32.5 0.5 L 57.43602991690932 0.5 L 57.43602991690932 -0.5 L 32.5 -0.5 Z M 106.55712366690932 0.5 L 131.49315358381864 0.5 L 131.49315358381864 3.5 L 138.49315358381864 0 L 131.49315358381864 -3.5 L 131.49315358381864 -0.5 L 106.55712366690932 -0.5 Z"/><text text-anchor="middle" pointer-events="none" font-size="8px" fill="#000000" x="81.99657679190932" y="3" font-family="Helvetica Neue, Helvetica, Arial, sans-serif">ROLE_FOR</text></g><g class="relationship" transform="translate(482.61403023377255 -305.3324881203577) rotate(375.9712301972392)"><path class="b-outline" fill="#D9C8AE" stroke="none" d="M 32.5 0.5 L 57.48864263689481 0.5 L 57.48864263689481 -0.5 L 32.5 -0.5 Z M 106.60973638689481 0.5 L 131.59837902378962 0.5 L 131.59837902378962 3.5 L 138.59837902378962 0 L 131.59837902378962 -3.5 L 131.59837902378962 -0.5 L 106.60973638689481 -0.5 Z"/><text text-anchor="middle" pointer-events="none" font-size="8px" fill="#000000" x="82.04918951189481" y="3" font-family="Helvetica Neue, Helvetica, Arial, sans-serif">ROLE_FOR</text></g><g class="relationship" transform="translate(482.61403023377255 -305.3324881203577) rotate(312.0929788753717)"><path class="b-outline" fill="#D9C8AE" stroke="none" d="M 32.5 0.5 L 56.2183659248183 0.5 L 56.2183659248183 -0.5 L 32.5 -0.5 Z M 105.3394596748183 0.5 L 129.0578255996366 0.5 L 129.0578255996366 3.5 L 136.0578255996366 0 L 129.0578255996366 -3.5 L 129.0578255996366 -0.5 L 105.3394596748183 -0.5 Z"/><text text-anchor="middle" pointer-events="none" font-size="8px" fill="#000000" x="80.7789127998183" y="3" font-family="Helvetica Neue, Helvetica, Arial, sans-serif">ROLE_FOR</text></g><g class="relationship" transform="translate(-0.3178434589599141 -61.12120444465245) rotate(279.1855394587424)"><path class="b-outline" fill="#D9C8AE" stroke="none" d="M 32.5 0.5 L 47.10388976837693 0.5 L 47.10388976837693 -0.5 L 32.5 -0.5 Z M 96.22498351837693 0.5 L 110.82887328675386 0.5 L 110.82887328675386 3.5 L 117.82887328675386 0 L 110.82887328675386 -3.5 L 110.82887328675386 -0.5 L 96.22498351837693 -0.5 Z"/><text text-anchor="middle" pointer-events="none" font-size="8px" fill="#000000" x="71.66443664337693" y="3" font-family="Helvetica Neue, Helvetica, Arial, sans-serif">ROLE_FOR</text></g><g class="relationship" transform="translate(-0.3178434589599141 -61.12120444465245) rotate(238.80849633597933)"><path class="b-outline" fill="#D9C8AE" stroke="none" d="M 32.5 0.5 L 76.63337179622268 0.5 L 76.63337179622268 -0.5 L 32.5 -0.5 Z M 125.75446554622268 0.5 L 169.88783734244535 0.5 L 169.88783734244535 3.5 L 176.88783734244535 0 L 169.88783734244535 -3.5 L 169.88783734244535 -0.5 L 125.75446554622268 -0.5 Z"/><text text-anchor="middle" pointer-events="none" font-size="8px" fill="#000000" x="101.19391867122268" y="3" transform="rotate(180 101.19391867122268 0)" font-family="Helvetica Neue, Helvetica, Arial, sans-serif">ROLE_FOR</text></g><g class="relationship" transform="translate(-0.3178434589599141 -61.12120444465245) rotate(486.24209092449274)"><path class="b-outline" fill="#D9C8AE" stroke="none" d="M 32.5 0.5 L 33.757454834723085 0.5 L 33.757454834723085 -0.5 L 32.5 -0.5 Z M 73.99182983472309 0.5 L 75.24928466944617 0.5 L 75.24928466944617 3.5 L 82.24928466944617 0 L 75.24928466944617 -3.5 L 75.24928466944617 -0.5 L 73.99182983472309 -0.5 Z"/><text text-anchor="middle" pointer-events="none" font-size="8px" fill="#000000" x="53.874642334723085" y="3" transform="rotate(180 53.874642334723085 0)" font-family="Helvetica Neue, Helvetica, Arial, sans-serif">ROLE_…</text></g><g class="relationship" transform="translate(-0.3178434589599141 -61.12120444465245) rotate(236.14134241797632)"><path class="b-outline" fill="#D9C8AE" stroke="none" d="M 32.5 0.5 L 33.84485844556623 0.5 L 33.84485844556623 -0.5 L 32.5 -0.5 Z M 74.07923344556623 0.5 L 75.42409189113246 0.5 L 75.42409189113246 3.5 L 82.42409189113246 0 L 75.42409189113246 -3.5 L 75.42409189113246 -0.5 L 74.07923344556623 -0.5 Z"/><text text-anchor="middle" pointer-events="none" font-size="8px" fill="#000000" x="53.96204594556623" y="3" transform="rotate(180 53.96204594556623 0)" font-family="Helvetica Neue, Helvetica, Arial, sans-serif">ROLE_…</text></g><g class="relationship" transform="translate(-0.3178434589599141 -61.12120444465245) rotate(208.82609484541115)"><path class="b-outline" fill="#D9C8AE" stroke="none" d="M 32.5 0.5 L 63.71011738577822 0.5 L 63.71011738577822 -0.5 L 32.5 -0.5 Z M 112.83121113577822 0.5 L 144.04132852155644 0.5 L 144.04132852155644 3.5 L 151.04132852155644 0 L 144.04132852155644 -3.5 L 144.04132852155644 -0.5 L 112.83121113577822 -0.5 Z"/><text text-anchor="middle" pointer-events="none" font-size="8px" fill="#000000" x="88.27066426077822" y="3" transform="rotate(180 88.27066426077822 0)" font-family="Helvetica Neue, Helvetica, Arial, sans-serif">ROLE_FOR</text></g><g class="relationship" transform="translate(-0.3178434589599141 -61.12120444465245) rotate(539.8838300101495)"><path class="b-outline" fill="#D9C8AE" stroke="none" d="M 32.5 0.5 L 32.71463437213888 0.5 L 32.71463437213888 -0.5 L 32.5 -0.5 Z M 77.83572812213887 0.5 L 78.05036249427776 0.5 L 78.05036249427776 3.5 L 85.05036249427776 0 L 78.05036249427776 -3.5 L 78.05036249427776 -0.5 L 77.83572812213887 -0.5 Z"/><text text-anchor="middle" pointer-events="none" font-size="8px" fill="#000000" x="55.27518124713888" y="3" transform="rotate(180 55.27518124713888 0)" font-family="Helvetica Neue, Helvetica, Arial, sans-serif">ROLE_F…</text></g><g class="relationship" transform="translate(148.46693829967415 -406.4380432513412) rotate(505.57717167114936)"><path class="b-outline" fill="#D9C8AE" stroke="none" d="M 32.5 0.5 L 78.40156287016909 0.5 L 78.40156287016909 -0.5 L 32.5 -0.5 Z M 127.52265662016909 0.5 L 173.42421949033817 0.5 L 173.42421949033817 3.5 L 180.42421949033817 0 L 173.42421949033817 -3.5 L 173.42421949033817 -0.5 L 127.52265662016909 -0.5 Z"/><text text-anchor="middle" pointer-events="none" font-size="8px" fill="#000000" x="102.96210974516909" y="3" transform="rotate(180 102.96210974516909 0)" font-family="Helvetica Neue, Helvetica, Arial, sans-serif">ROLE_FOR</text></g><g class="relationship" transform="translate(-0.3178434589599141 -61.12120444465245) rotate(264.8473080115591)"><path class="b-outline" fill="#D9C8AE" stroke="none" d="M 32.5 0.5 L 90.75013025890472 0.5 L 90.75013025890472 -0.5 L 32.5 -0.5 Z M 139.87122400890473 0.5 L 198.12135426780944 0.5 L 198.12135426780944 3.5 L 205.12135426780944 0 L 198.12135426780944 -3.5 L 198.12135426780944 -0.5 L 139.87122400890473 -0.5 Z"/><text text-anchor="middle" pointer-events="none" font-size="8px" fill="#000000" x="115.31067713390472" y="3" transform="rotate(180 115.31067713390472 0)" font-family="Helvetica Neue, Helvetica, Arial, sans-serif">ROLE_FOR</text></g><g class="relationship" transform="translate(-0.3178434589599141 -61.12120444465245) rotate(180.07893419330105)"><path class="b-outline" fill="#D9C8AE" stroke="none" d="M 32.5 0.5 L 78.46937608484852 0.5 L 78.46937608484852 -0.5 L 32.5 -0.5 Z M 127.59046983484852 0.5 L 173.55984591969704 0.5 L 173.55984591969704 3.5 L 180.55984591969704 0 L 173.55984591969704 -3.5 L 173.55984591969704 -0.5 L 127.59046983484852 -0.5 Z"/><text text-anchor="middle" pointer-events="none" font-size="8px" fill="#000000" x="103.02992295984852" y="3" transform="rotate(180 103.02992295984852 0)" font-family="Helvetica Neue, Helvetica, Arial, sans-serif">ROLE_FOR</text></g><g class="relationship" transform="translate(-0.3178434589599141 -61.12120444465245) rotate(219.73165363186723)"><path class="b-outline" fill="#D9C8AE" stroke="none" d="M 32.5 0.5 L 106.89391387440233 0.5 L 106.89391387440233 -0.5 L 32.5 -0.5 Z M 156.01500762440233 0.5 L 230.40892149880466 0.5 L 230.40892149880466 3.5 L 237.40892149880466 0 L 230.40892149880466 -3.5 L 230.40892149880466 -0.5 L 156.01500762440233 -0.5 Z"/><text text-anchor="middle" pointer-events="none" font-size="8px" fill="#000000" x="131.45446074940233" y="3" transform="rotate(180 131.45446074940233 0)" font-family="Helvetica Neue, Helvetica, Arial, sans-serif">ROLE_FOR</text></g><g class="relationship" transform="translate(-0.3178434589599141 -61.12120444465245) rotate(521.7242627831531)"><path class="b-outline" fill="#D9C8AE" stroke="none" d="M 32.5 0.5 L 109.86852184475114 0.5 L 109.86852184475114 -0.5 L 32.5 -0.5 Z M 158.98961559475114 0.5 L 236.3581374395023 0.5 L 236.3581374395023 3.5 L 243.3581374395023 0 L 236.3581374395023 -3.5 L 236.3581374395023 -0.5 L 158.98961559475114 -0.5 Z"/><text text-anchor="middle" pointer-events="none" font-size="8px" fill="#000000" x="134.42906871975114" y="3" transform="rotate(180 134.42906871975114 0)" font-family="Helvetica Neue, Helvetica, Arial, sans-serif">ROLE_FOR</text></g><g class="relationship" transform="translate(-0.3178434589599141 -61.12120444465245) rotate(500.1081157650137)"><path class="b-outline" fill="#D9C8AE" stroke="none" d="M 32.5 0.5 L 108.21264923795815 0.5 L 108.21264923795815 -0.5 L 32.5 -0.5 Z M 157.33374298795815 0.5 L 233.0463922259163 0.5 L 233.0463922259163 3.5 L 240.0463922259163 0 L 233.0463922259163 -3.5 L 233.0463922259163 -0.5 L 157.33374298795815 -0.5 Z"/><text text-anchor="middle" pointer-events="none" font-size="8px" fill="#000000" x="132.77319611295815" y="3" transform="rotate(180 132.77319611295815 0)" font-family="Helvetica Neue, Helvetica, Arial, sans-serif">ROLE_FOR</text></g><g class="relationship" transform="translate(-0.3178434589599141 -61.12120444465245) rotate(198.30560253896533)"><path class="b-outline" fill="#D9C8AE" stroke="none" d="M 32.5 0.5 L 108.73422033214837 0.5 L 108.73422033214837 -0.5 L 32.5 -0.5 Z M 157.85531408214837 0.5 L 234.08953441429674 0.5 L 234.08953441429674 3.5 L 241.08953441429674 0 L 234.08953441429674 -3.5 L 234.08953441429674 -0.5 L 157.85531408214837 -0.5 Z"/><text text-anchor="middle" pointer-events="none" font-size="8px" fill="#000000" x="133.29476720714837" y="3" transform="rotate(180 133.29476720714837 0)" font-family="Helvetica Neue, Helvetica, Arial, sans-serif">ROLE_FOR</text></g><g class="relationship" transform="translate(-0.3178434589599141 -61.12120444465245) rotate(511.56154204682605)"><path class="b-outline" fill="#D9C8AE" stroke="none" d="M 32.5 0.5 L 64.98403035426072 0.5 L 64.98403035426072 -0.5 L 32.5 -0.5 Z M 114.10512410426072 0.5 L 146.58915445852145 0.5 L 146.58915445852145 3.5 L 153.58915445852145 0 L 146.58915445852145 -3.5 L 146.58915445852145 -0.5 L 114.10512410426072 -0.5 Z"/><text text-anchor="middle" pointer-events="none" font-size="8px" fill="#000000" x="89.54457722926072" y="3" transform="rotate(180 89.54457722926072 0)" font-family="Helvetica Neue, Helvetica, Arial, sans-serif">ROLE_FOR</text></g><g class="relationship" transform="translate(-0.3178434589599141 -61.12120444465245) rotate(452.8820770140593)"><path class="b-outline" fill="#D9C8AE" stroke="none" d="M 32.5 0.5 L 58.163194077296836 0.5 L 58.163194077296836 -0.5 L 32.5 -0.5 Z M 107.28428782729684 0.5 L 132.94748190459367 0.5 L 132.94748190459367 3.5 L 139.94748190459367 0 L 132.94748190459367 -3.5 L 132.94748190459367 -0.5 L 107.28428782729684 -0.5 Z"/><text text-anchor="middle" pointer-events="none" font-size="8px" fill="#000000" x="82.72374095229684" y="3" transform="rotate(180 82.72374095229684 0)" font-family="Helvetica Neue, Helvetica, Arial, sans-serif">ROLE_FOR</text></g></g><g class="layer nodes"><g class="node" aria-label="graph-node22" transform="translate(319.87373442421693,91.14763735636453)"><circle class="b-outline" cx="0" cy="0" r="32.5" fill="#ECB5C9" stroke="#da7298" stroke-width="2px"/><text class="caption" text-anchor="middle" pointer-events="none" x="0" y="5" font-size="10px" fill="#2A2C34" font-family="Helvetica Neue, Helvetica, Arial, sans-serif"> type:destroy…</text></g><g class="node" aria-label="graph-node119" transform="translate(110.69240947760791,-162.9886075996085)"><circle class="b-outline" cx="0" cy="0" r="25" fill="#4C8EDA" stroke="#2870c2" stroke-width="2px"/><text class="caption" text-anchor="middle" pointer-events="none" x="0" y="5" font-size="10px" fill="#FFFFFF" font-family="Helvetica Neue, Helvetica, Arial, sans-serif"> Texas</text></g><g class="node" aria-label="graph-node6376" transform="translate(430.20279362960696,112.85590252070541)"><circle class="b-outline" cx="0" cy="0" r="32.5" fill="#ECB5C9" stroke="#da7298" stroke-width="2px"/><text class="caption" text-anchor="middle" pointer-events="none" x="0" y="5" font-size="10px" fill="#2A2C34" font-family="Helvetica Neue, Helvetica, Arial, sans-serif"> type:usefire…</text></g><g class="node" aria-label="graph-node36644" transform="translate(491.7707615853323,17.666638732604177)"><circle class="b-outline" cx="0" cy="0" r="32.5" fill="#ECB5C9" stroke="#da7298" stroke-width="2px"/><text class="caption" text-anchor="middle" pointer-events="none" x="0" y="5" font-size="10px" fill="#2A2C34" font-family="Helvetica Neue, Helvetica, Arial, sans-serif"> type:catastr…</text></g><g class="node" aria-label="graph-node255" transform="translate(334.0331829533545,388.2502031887429)"><circle class="b-outline" cx="0" cy="0" r="25" fill="#4C8EDA" stroke="#2870c2" stroke-width="2px"/><text class="caption" text-anchor="middle" pointer-events="none" x="0" y="5" font-size="10px" fill="#FFFFFF" font-family="Helvetica Neue, Helvetica, Arial, sans-serif"> Wednes…</text></g><g class="node" aria-label="graph-node284" transform="translate(-107.62909260420913,109.69912400857936)"><circle class="b-outline" cx="0" cy="0" r="25" fill="#4C8EDA" stroke="#2870c2" stroke-width="2px"/><text class="caption" text-anchor="middle" pointer-events="none" x="0" y="5" font-size="10px" fill="#FFFFFF" font-family="Helvetica Neue, Helvetica, Arial, sans-serif"> NSW</text></g><g class="node" aria-label="graph-node356" transform="translate(-52.15885687918501,188.50897427844532)"><circle class="b-outline" cx="0" cy="0" r="25" fill="#4C8EDA" stroke="#2870c2" stroke-width="2px"/><text class="caption" text-anchor="middle" pointer-events="none" x="0" y="5" font-size="10px" fill="#FFFFFF" font-family="Helvetica Neue, Helvetica, Arial, sans-serif"> Amazon</text></g><g class="node" aria-label="graph-node904" transform="translate(-31.61373827882538,-388.04435951332164)"><circle class="b-outline" cx="0" cy="0" r="25" fill="#4C8EDA" stroke="#2870c2" stroke-width="2px"/><text class="caption" text-anchor="middle" pointer-events="none" x="0" y="5" font-size="10px" fill="#FFFFFF" font-family="Helvetica Neue, Helvetica, Arial, sans-serif"> CNN</text></g><g class="node" aria-label="graph-node1007" transform="translate(103.94999464264788,-66.33446700979603)"><circle class="b-outline" cx="0" cy="0" r="25" fill="#4C8EDA" stroke="#2870c2" stroke-width="2px"/><text class="caption" text-anchor="middle" pointer-events="none" x="0" y="5" font-size="10px" fill="#FFFFFF" font-family="Helvetica Neue, Helvetica, Arial, sans-serif"> California</text></g><g class="node" aria-label="graph-node1075" transform="translate(47.069510624826194,179.70746578093124)"><circle class="b-outline" cx="0" cy="0" r="25" fill="#4C8EDA" stroke="#2870c2" stroke-width="2px"/><text class="caption" text-anchor="middle" pointer-events="none" x="0" y="5" font-size="10px" fill="#FFFFFF" font-family="Helvetica Neue, Helvetica, Arial, sans-serif"> there</text></g><g class="node" aria-label="graph-node1227" transform="translate(433.50288099966036,384.02415016437885)"><circle class="b-outline" cx="0" cy="0" r="25" fill="#4C8EDA" stroke="#2870c2" stroke-width="2px"/><text class="caption" text-anchor="middle" pointer-events="none" x="0" y="5" font-size="10px" fill="#FFFFFF" font-family="Helvetica Neue, Helvetica, Arial, sans-serif"> Sunday</text></g><g class="node" aria-label="graph-node1265" transform="translate(187.7899206011604,-307.4871016158536)"><circle class="b-outline" cx="0" cy="0" r="25" fill="#4C8EDA" stroke="#2870c2" stroke-width="2px"/><text class="caption" text-anchor="middle" pointer-events="none" x="0" y="5" font-size="10px" fill="#FFFFFF" font-family="Helvetica Neue, Helvetica, Arial, sans-serif"> I</text></g><g class="node" aria-label="graph-node1423" transform="translate(193.52255034155556,-210.48304887306412)"><circle class="b-outline" cx="0" cy="0" r="25" fill="#4C8EDA" stroke="#2870c2" stroke-width="2px"/><text class="caption" text-anchor="middle" pointer-events="none" x="0" y="5" font-size="10px" fill="#FFFFFF" font-family="Helvetica Neue, Helvetica, Arial, sans-serif"> We</text></g><g class="node" aria-label="graph-node1633" transform="translate(268.6334848733858,-145.21816092581082)"><circle class="b-outline" cx="0" cy="0" r="25" fill="#4C8EDA" stroke="#2870c2" stroke-width="2px"/><text class="caption" text-anchor="middle" pointer-events="none" x="0" y="5" font-size="10px" fill="#FFFFFF" font-family="Helvetica Neue, Helvetica, Arial, sans-serif"> they</text></g><g class="node" aria-label="graph-node2054" transform="translate(56.50330852208466,-349.85782918387156)"><circle class="b-outline" cx="0" cy="0" r="25" fill="#4C8EDA" stroke="#2870c2" stroke-width="2px"/><text class="caption" text-anchor="middle" pointer-events="none" x="0" y="5" font-size="10px" fill="#FFFFFF" font-family="Helvetica Neue, Helvetica, Arial, sans-serif"> Officials</text></g><g class="node" aria-label="graph-node2095" transform="translate(288.23202092357496,-241.71437518829407)"><circle class="b-outline" cx="0" cy="0" r="25" fill="#4C8EDA" stroke="#2870c2" stroke-width="2px"/><text class="caption" text-anchor="middle" pointer-events="none" x="0" y="5" font-size="10px" fill="#FFFFFF" font-family="Helvetica Neue, Helvetica, Arial, sans-serif"> it</text></g><g class="node" aria-label="graph-node3546" transform="translate(57.06868907073191,28.82636856053863)"><circle class="b-outline" cx="0" cy="0" r="25" fill="#4C8EDA" stroke="#2870c2" stroke-width="2px"/><text class="caption" text-anchor="middle" pointer-events="none" x="0" y="5" font-size="10px" fill="#FFFFFF" font-family="Helvetica Neue, Helvetica, Arial, sans-serif"> Oklahoma</text></g><g class="node" aria-label="graph-node3595" transform="translate(505.15922989797104,-201.82555357240733)"><circle class="b-outline" cx="0" cy="0" r="25" fill="#4C8EDA" stroke="#2870c2" stroke-width="2px"/><text class="caption" text-anchor="middle" pointer-events="none" x="0" y="5" font-size="10px" fill="#FFFFFF" font-family="Helvetica Neue, Helvetica, Arial, sans-serif"> BIA</text></g><g class="node" aria-label="graph-node3597" transform="translate(113.39682581876849,107.67495079163194)"><circle class="b-outline" cx="0" cy="0" r="25" fill="#4C8EDA" stroke="#2870c2" stroke-width="2px"/><text class="caption" text-anchor="middle" pointer-events="none" x="0" y="5" font-size="10px" fill="#FFFFFF" font-family="Helvetica Neue, Helvetica, Arial, sans-serif"> Eufaula</text></g><g class="node" aria-label="graph-node4032" transform="translate(100.73343913764862,-259.5687922189097)"><circle class="b-outline" cx="0" cy="0" r="25" fill="#4C8EDA" stroke="#2870c2" stroke-width="2px"/><text class="caption" text-anchor="middle" pointer-events="none" x="0" y="5" font-size="10px" fill="#FFFFFF" font-family="Helvetica Neue, Helvetica, Arial, sans-serif"> Florida</text></g><g class="node" aria-label="graph-node6207" transform="translate(153.77376170785791,16.38884842621828)"><circle class="b-outline" cx="0" cy="0" r="25" fill="#4C8EDA" stroke="#2870c2" stroke-width="2px"/><text class="caption" text-anchor="middle" pointer-events="none" x="0" y="5" font-size="10px" fill="#FFFFFF" font-family="Helvetica Neue, Helvetica, Arial, sans-serif"> London</text></g><g class="node" aria-label="graph-node8110" transform="translate(306.64860972838727,-479.32928825617125)"><circle class="b-outline" cx="0" cy="0" r="25" fill="#4C8EDA" stroke="#2870c2" stroke-width="2px"/><text class="caption" text-anchor="middle" pointer-events="none" x="0" y="5" font-size="10px" fill="#FFFFFF" font-family="Helvetica Neue, Helvetica, Arial, sans-serif"> Trump</text></g><g class="node" aria-label="graph-node12326" transform="translate(214.66118680474244,94.05304510125161)"><circle class="b-outline" cx="0" cy="0" r="25" fill="#4C8EDA" stroke="#2870c2" stroke-width="2px"/><text class="caption" text-anchor="middle" pointer-events="none" x="0" y="5" font-size="10px" fill="#FFFFFF" font-family="Helvetica Neue, Helvetica, Arial, sans-serif"> homes</text></g><g class="node" aria-label="graph-node12672" transform="translate(-109.24398395111615,-330.99472383532674)"><circle class="b-outline" cx="0" cy="0" r="25" fill="#4C8EDA" stroke="#2870c2" stroke-width="2px"/><text class="caption" text-anchor="middle" pointer-events="none" x="0" y="5" font-size="10px" fill="#FFFFFF" font-family="Helvetica Neue, Helvetica, Arial, sans-serif"> Greece</text></g><g class="node" aria-label="graph-node13713" transform="translate(598.2922657296716,5.546962107639158)"><circle class="b-outline" cx="0" cy="0" r="25" fill="#4C8EDA" stroke="#2870c2" stroke-width="2px"/><text class="caption" text-anchor="middle" pointer-events="none" x="0" y="5" font-size="10px" fill="#FFFFFF" font-family="Helvetica Neue, Helvetica, Arial, sans-serif"> business…</text></g><g class="node" aria-label="graph-node15020" transform="translate(63.927479335475745,-549.5944744574084)"><circle class="b-outline" cx="0" cy="0" r="25" fill="#4C8EDA" stroke="#2870c2" stroke-width="2px"/><text class="caption" text-anchor="middle" pointer-events="none" x="0" y="5" font-size="10px" fill="#FFFFFF" font-family="Helvetica Neue, Helvetica, Arial, sans-serif"> Witnesses</text></g><g class="node" aria-label="graph-node15133" transform="translate(199.51390546231008,-70.47177427512338)"><circle class="b-outline" cx="0" cy="0" r="25" fill="#4C8EDA" stroke="#2870c2" stroke-width="2px"/><text class="caption" text-anchor="middle" pointer-events="none" x="0" y="5" font-size="10px" fill="#FFFFFF" font-family="Helvetica Neue, Helvetica, Arial, sans-serif"> Geneva</text></g><g class="node" aria-label="graph-node16565" transform="translate(161.5416011947308,-569.4075632818142)"><circle class="b-outline" cx="0" cy="0" r="25" fill="#4C8EDA" stroke="#2870c2" stroke-width="2px"/><text class="caption" text-anchor="middle" pointer-events="none" x="0" y="5" font-size="10px" fill="#FFFFFF" font-family="Helvetica Neue, Helvetica, Arial, sans-serif"> Firefight…</text></g><g class="node" aria-label="graph-node16632" transform="translate(639.897508542911,-260.31763423644196)"><circle class="b-outline" cx="0" cy="0" r="25" fill="#4C8EDA" stroke="#2870c2" stroke-width="2px"/><text class="caption" text-anchor="middle" pointer-events="none" x="0" y="5" font-size="10px" fill="#FFFFFF" font-family="Helvetica Neue, Helvetica, Arial, sans-serif"> extinguis…</text></g><g class="node" aria-label="graph-node16818" transform="translate(590.5768390340924,-424.84673456331757)"><circle class="b-outline" cx="0" cy="0" r="25" fill="#4C8EDA" stroke="#2870c2" stroke-width="2px"/><text class="caption" text-anchor="middle" pointer-events="none" x="0" y="5" font-size="10px" fill="#FFFFFF" font-family="Helvetica Neue, Helvetica, Arial, sans-serif"> arson</text></g><g class="node" aria-label="graph-node16870" transform="translate(22.482221689915598,-202.11852382899613)"><circle class="b-outline" cx="0" cy="0" r="25" fill="#4C8EDA" stroke="#2870c2" stroke-width="2px"/><text class="caption" text-anchor="middle" pointer-events="none" x="0" y="5" font-size="10px" fill="#FFFFFF" font-family="Helvetica Neue, Helvetica, Arial, sans-serif"> Tsamanda</text></g><g class="node" aria-label="graph-node16876" transform="translate(-104.87558723253102,-233.82435173441647)"><circle class="b-outline" cx="0" cy="0" r="25" fill="#4C8EDA" stroke="#2870c2" stroke-width="2px"/><text class="caption" text-anchor="middle" pointer-events="none" x="0" y="5" font-size="10px" fill="#FFFFFF" font-family="Helvetica Neue, Helvetica, Arial, sans-serif"> Corfu</text></g><g class="node" aria-label="graph-node17103" transform="translate(-63.72344054771463,25.37815578377005)"><circle class="b-outline" cx="0" cy="0" r="25" fill="#4C8EDA" stroke="#2870c2" stroke-width="2px"/><text class="caption" text-anchor="middle" pointer-events="none" x="0" y="5" font-size="10px" fill="#FFFFFF" font-family="Helvetica Neue, Helvetica, Arial, sans-serif"> Kinglake</text></g><g class="node" aria-label="graph-node17160" transform="translate(-60.168752906464626,-150.32772974936915)"><circle class="b-outline" cx="0" cy="0" r="25" fill="#4C8EDA" stroke="#2870c2" stroke-width="2px"/><text class="caption" text-anchor="middle" pointer-events="none" x="0" y="5" font-size="10px" fill="#FFFFFF" font-family="Helvetica Neue, Helvetica, Arial, sans-serif"> Beechw…</text></g><g class="node" aria-label="graph-node17386" transform="translate(-154.54539431668897,-146.0000115996847)"><circle class="b-outline" cx="0" cy="0" r="25" fill="#4C8EDA" stroke="#2870c2" stroke-width="2px"/><text class="caption" text-anchor="middle" pointer-events="none" x="0" y="5" font-size="10px" fill="#FFFFFF" font-family="Helvetica Neue, Helvetica, Arial, sans-serif"> Coleraine</text></g><g class="node" aria-label="graph-node17396" transform="translate(-110.36797974731539,-60.89807211547913)"><circle class="b-outline" cx="0" cy="0" r="25" fill="#4C8EDA" stroke="#2870c2" stroke-width="2px"/><text class="caption" text-anchor="middle" pointer-events="none" x="0" y="5" font-size="10px" fill="#FFFFFF" font-family="Helvetica Neue, Helvetica, Arial, sans-serif"> Pombor…</text></g><g class="node" aria-label="graph-node17574" transform="translate(-20.985103729235124,-290.31261362695875)"><circle class="b-outline" cx="0" cy="0" r="25" fill="#4C8EDA" stroke="#2870c2" stroke-width="2px"/><text class="caption" text-anchor="middle" pointer-events="none" x="0" y="5" font-size="10px" fill="#FFFFFF" font-family="Helvetica Neue, Helvetica, Arial, sans-serif"> Buffalo</text></g><g class="node" aria-label="graph-node17577" transform="translate(-205.87749430739026,-61.404396254207256)"><circle class="b-outline" cx="0" cy="0" r="25" fill="#4C8EDA" stroke="#2870c2" stroke-width="2px"/><text class="caption" text-anchor="middle" pointer-events="none" x="0" y="5" font-size="10px" fill="#FFFFFF" font-family="Helvetica Neue, Helvetica, Arial, sans-serif"> N.Y.</text></g><g class="node" aria-label="graph-node17640" transform="translate(-202.1225176313439,-228.85109314772095)"><circle class="b-outline" cx="0" cy="0" r="25" fill="#4C8EDA" stroke="#2870c2" stroke-width="2px"/><text class="caption" text-anchor="middle" pointer-events="none" x="0" y="5" font-size="10px" fill="#FFFFFF" font-family="Helvetica Neue, Helvetica, Arial, sans-serif"> Zaharo</text></g><g class="node" aria-label="graph-node18103" transform="translate(-255.13955565924638,23.033325565996222)"><circle class="b-outline" cx="0" cy="0" r="25" fill="#4C8EDA" stroke="#2870c2" stroke-width="2px"/><text class="caption" text-anchor="middle" pointer-events="none" x="0" y="5" font-size="10px" fill="#FFFFFF" font-family="Helvetica Neue, Helvetica, Arial, sans-serif"> Halifax</text></g><g class="node" aria-label="graph-node18571" transform="translate(-203.67627907907507,108.863902826878)"><circle class="b-outline" cx="0" cy="0" r="25" fill="#4C8EDA" stroke="#2870c2" stroke-width="2px"/><text class="caption" text-anchor="middle" pointer-events="none" x="0" y="5" font-size="10px" fill="#FFFFFF" font-family="Helvetica Neue, Helvetica, Arial, sans-serif"> Williams</text></g><g class="node" aria-label="graph-node21771" transform="translate(-252.94185579872462,-144.69601353313078)"><circle class="b-outline" cx="0" cy="0" r="25" fill="#4C8EDA" stroke="#2870c2" stroke-width="2px"/><text class="caption" text-anchor="middle" pointer-events="none" x="0" y="5" font-size="10px" fill="#FFFFFF" font-family="Helvetica Neue, Helvetica, Arial, sans-serif"> Kas</text></g><g class="node" aria-label="graph-node28684" transform="translate(-157.35648878513615,23.92554719424942)"><circle class="b-outline" cx="0" cy="0" r="25" fill="#4C8EDA" stroke="#2870c2" stroke-width="2px"/><text class="caption" text-anchor="middle" pointer-events="none" x="0" y="5" font-size="10px" fill="#FFFFFF" font-family="Helvetica Neue, Helvetica, Arial, sans-serif"> Liverpool</text></g><g class="node" aria-label="graph-node34532" transform="translate(-8.611489132234137,103.61764109006785)"><circle class="b-outline" cx="0" cy="0" r="25" fill="#4C8EDA" stroke="#2870c2" stroke-width="2px"/><text class="caption" text-anchor="middle" pointer-events="none" x="0" y="5" font-size="10px" fill="#FFFFFF" font-family="Helvetica Neue, Helvetica, Arial, sans-serif"> Fairmont</text></g><g class="node" aria-label="graph-node380" transform="translate(328.9611653271126,-64.59707969596172)"><circle class="b-outline" cx="0" cy="0" r="25" fill="#F16667" stroke="#eb2728" stroke-width="2px"/><text class="caption" text-anchor="middle" pointer-events="none" x="0" y="5" font-size="10px" fill="#FFFFFF" font-family="Helvetica Neue, Helvetica, Arial, sans-serif"> fire</text></g><g class="node" aria-label="graph-node0" transform="translate(148.46693829967415,-406.4380432513412)"><circle class="b-outline" cx="0" cy="0" r="32.5" fill="#57C7E3" stroke="#23b3d7" stroke-width="2px"/><text class="caption" text-anchor="middle" pointer-events="none" x="0" y="5" font-size="10px" fill="#2A2C34" font-family="Helvetica Neue, Helvetica, Arial, sans-serif"> role:entity</text></g><g class="node" aria-label="graph-node19" transform="translate(-0.3178434589599141,-61.12120444465245)"><circle class="b-outline" cx="0" cy="0" r="32.5" fill="#57C7E3" stroke="#23b3d7" stroke-width="2px"/><text class="caption" text-anchor="middle" pointer-events="none" x="0" y="5" font-size="10px" fill="#2A2C34" font-family="Helvetica Neue, Helvetica, Arial, sans-serif"> role:place</text></g><g class="node" aria-label="graph-node36639" transform="translate(381.39750170866427,220.78952460423596)"><circle class="b-outline" cx="0" cy="0" r="32.5" fill="#57C7E3" stroke="#23b3d7" stroke-width="2px"/><text class="caption" text-anchor="middle" pointer-events="none" x="0" y="5" font-size="10px" fill="#2A2C34" font-family="Helvetica Neue, Helvetica, Arial, sans-serif"> role:time</text></g><g class="node" aria-label="graph-node573" transform="translate(368.23675213389794,-314.31833103328444)"><circle class="b-outline" cx="0" cy="0" r="32.5" fill="#57C7E3" stroke="#23b3d7" stroke-width="2px"/><text class="caption" text-anchor="middle" pointer-events="none" x="0" y="5" font-size="10px" fill="#2A2C34" font-family="Helvetica Neue, Helvetica, Arial, sans-serif"> role:attacker</text></g><g class="node" aria-label="graph-node937" transform="translate(435.06202440366906,-80.92652884754904)"><circle class="b-outline" cx="0" cy="0" r="32.5" fill="#57C7E3" stroke="#23b3d7" stroke-width="2px"/><text class="caption" text-anchor="middle" pointer-events="none" x="0" y="5" font-size="10px" fill="#2A2C34" font-family="Helvetica Neue, Helvetica, Arial, sans-serif"> role:target</text></g><g class="node" aria-label="graph-node509" transform="translate(482.61403023377255,-305.3324881203577)"><circle class="b-outline" cx="0" cy="0" r="32.5" fill="#57C7E3" stroke="#23b3d7" stroke-width="2px"/><text class="caption" text-anchor="middle" pointer-events="none" x="0" y="5" font-size="10px" fill="#2A2C34" font-family="Helvetica Neue, Helvetica, Arial, sans-serif"> role:instrum…</text></g></g></svg>