<svg xmlns="http://www.w3.org/2000/svg" width="795.7062377929688" height="220.76211547851562" viewBox="-667.9999389648438 -215.2590789794922 795.7062377929688 220.76211547851562"><title>Neo4j Graph Visualization</title><desc>Created using Neo4j (http://www.neo4j.com/)</desc><g class="layer relationships"><g class="relationship" transform="translate(-170.64643306955605 -41.71614199301945) rotate(359.74172268501206)"><path class="b-outline" fill="#569480" stroke="none" d="M 32.5 1 L 90.58978505887623 1 L 90.58978505887623 -1 L 32.5 -1 Z M 163.26556630887623 1 L 221.35535136775246 1 L 221.35535136775246 4 L 229.35535136775246 0 L 221.35535136775246 -4 L 221.35535136775246 -1 L 163.26556630887623 -1 Z"/><text text-anchor="middle" pointer-events="none" font-size="8px" fill="#000000" x="126.92767568387623" y="3" font-family="Helvetica Neue, Helvetica, Arial, sans-serif">HAS_ARGUMENT</text></g><g class="relationship" transform="translate(-404.5866217918109 -40.032013189005575) rotate(302.7584957168023)"><path class="b-outline" fill="#569480" stroke="none" d="M 32.5 1 L 39.02445913806534 1 L 39.02445913806534 -1 L 32.5 -1 Z M 117.93852163806534 1 L 124.46298077613068 1 L 124.46298077613068 4 L 132.46298077613068 0 L 124.46298077613068 -4 L 124.46298077613068 -1 L 117.93852163806534 -1 Z"/><text text-anchor="middle" pointer-events="none" font-size="8px" fill="#000000" x="78.48149038806534" y="3" font-family="Helvetica Neue, Helvetica, Arial, sans-serif">HAS_EVENT_TYPE</text></g><g class="relationship" transform="translate(-48.875248254339 -176.56994766444188) rotate(403.6590590182372)"><path class="b-outline" fill="#D9C8AE" stroke="none" d="M 32.5 0.5 L 53.86037068996342 0.5 L 53.86037068996342 -0.5 L 32.5 -0.5 Z M 132.76662068996342 0.5 L 154.12699137992684 0.5 L 154.12699137992684 3.5 L 161.12699137992684 0 L 154.12699137992684 -3.5 L 154.12699137992684 -0.5 L 132.76662068996342 -0.5 Z"/><text text-anchor="middle" pointer-events="none" font-size="8px" fill="#000000" x="93.31349568996342" y="3" font-family="Helvetica Neue, Helvetica, Arial, sans-serif">ROLE_FOR_IDARG</text></g><g class="relationship" transform="translate(-404.5866217918109 -40.032013189005575) rotate(359.5875364285449)"><path class="b-outline" fill="#569480" stroke="none" d="M 32.5 1 L 81.30125032076836 1 L 81.30125032076836 -1 L 32.5 -1 Z M 144.64500032076836 1 L 193.44625064153672 1 L 193.44625064153672 4 L 201.44625064153672 0 L 193.44625064153672 -4 L 193.44625064153672 -1 L 144.64500032076836 -1 Z"/><text text-anchor="middle" pointer-events="none" font-size="8px" fill="#000000" x="112.97312532076836" y="3" font-family="Helvetica Neue, Helvetica, Arial, sans-serif">HAS_TRIGGER</text></g><g class="relationship" transform="translate(-48.875248254339 -176.56994766444188) rotate(360.181689526471)"><path class="b-outline" fill="#D9C8AE" stroke="none" d="M 32.5 0.5 L 49.192130378995586 0.5 L 49.192130378995586 -0.5 L 32.5 -0.5 Z M 98.31322412899559 0.5 L 115.00535450799117 0.5 L 115.00535450799117 3.5 L 122.00535450799117 0 L 115.00535450799117 -3.5 L 115.00535450799117 -0.5 L 98.31322412899559 -0.5 Z"/><text text-anchor="middle" pointer-events="none" font-size="8px" fill="#000000" x="73.75267725399559" y="3" font-family="Helvetica Neue, Helvetica, Arial, sans-serif">ROLE_FOR</text></g><g class="relationship" transform="translate(-315.3252892857133 -178.75908172929422) rotate(403.4474091022262)"><path class="b-outline" fill="#D9C8AE" stroke="none" d="M 32.5 0.5 L 57.579729579323114 0.5 L 57.579729579323114 -0.5 L 32.5 -0.5 Z M 134.7008233293231 0.5 L 159.78055290864623 0.5 L 159.78055290864623 3.5 L 166.78055290864623 0 L 159.78055290864623 -3.5 L 159.78055290864623 -0.5 L 134.7008233293231 -0.5 Z"/><text text-anchor="middle" pointer-events="none" font-size="8px" fill="#000000" x="96.14027645432311" y="3" font-family="Helvetica Neue, Helvetica, Arial, sans-serif">EVENT_FOR_IDTR</text></g><g class="relationship" transform="translate(-170.64643306955605 -41.71614199301945) rotate(312.0816146704954)"><path class="b-outline" fill="#569480" stroke="none" d="M 32.5 1 L 62.50666259923588 1 L 62.50666259923588 -1 L 32.5 -1 Z M 111.19025634923588 1 L 141.19691894847176 1 L 141.19691894847176 4 L 149.19691894847176 0 L 141.19691894847176 -4 L 141.19691894847176 -1 L 111.19025634923588 -1 Z"/><text text-anchor="middle" pointer-events="none" font-size="8px" fill="#000000" x="86.84845947423588" y="3" font-family="Helvetica Neue, Helvetica, Arial, sans-serif">HAS_ROLE</text></g><g class="relationship" transform="translate(-525.2387876735183 -172.22580954181583) rotate(407.6135596081598)"><path class="b-outline" fill="#D9C8AE" stroke="none" d="M 32.5 0.5 L 41.26888172376857 0.5 L 41.26888172376857 -0.5 L 32.5 -0.5 Z M 130.70638172376857 0.5 L 139.47526344753715 0.5 L 139.47526344753715 3.5 L 146.47526344753715 0 L 139.47526344753715 -3.5 L 139.47526344753715 -0.5 L 130.70638172376857 -0.5 Z"/><text text-anchor="middle" pointer-events="none" font-size="8px" fill="#000000" x="85.98763172376857" y="3" font-family="Helvetica Neue, Helvetica, Arial, sans-serif">PUBLISHED_ARTICLE</text></g><g class="relationship" transform="translate(-315.3252892857133 -178.75908172929422) rotate(360.2527373109117)"><path class="b-outline" fill="#D9C8AE" stroke="none" d="M 32.5 0.5 L 43.15097578720639 0.5 L 43.15097578720639 -0.5 L 32.5 -0.5 Z M 97.15878828720639 0.5 L 107.80976407441278 0.5 L 107.80976407441278 3.5 L 114.80976407441278 0 L 107.80976407441278 -3.5 L 107.80976407441278 -0.5 L 97.15878828720639 -0.5 Z"/><text text-anchor="middle" pointer-events="none" font-size="8px" fill="#000000" x="70.15488203720639" y="3" font-family="Helvetica Neue, Helvetica, Arial, sans-serif">EVENT_FOR</text></g><g class="relationship" transform="translate(-175.51688540343415 -178.14236912810182) rotate(360.7113654420008)"><path class="b-outline" fill="#D9C8AE" stroke="none" d="M 25 0.5 L 39.964371178407724 0.5 L 39.964371178407724 -0.5 L 25 -0.5 Z M 72.18702742840773 0.5 L 87.15139860681545 0.5 L 87.15139860681545 3.5 L 94.15139860681545 0 L 87.15139860681545 -3.5 L 87.15139860681545 -0.5 L 72.18702742840773 -0.5 Z"/><text text-anchor="middle" pointer-events="none" font-size="8px" fill="#000000" x="56.075699303407724" y="3" font-family="Helvetica Neue, Helvetica, Arial, sans-serif">TR_OF</text></g><g class="relationship" transform="translate(-623.9999600365848 -38.49696110710151) rotate(359.59915576967444)"><path class="b-outline" fill="#569480" stroke="none" d="M 40 1 L 72.0062289592337 1 L 72.0062289592337 -1 L 40 -1 Z M 146.91247895923368 1 L 178.9187079184674 1 L 178.9187079184674 4 L 186.9187079184674 0 L 178.9187079184674 -4 L 178.9187079184674 -1 L 146.91247895923368 -1 Z"/><text text-anchor="middle" pointer-events="none" font-size="8px" fill="#000000" x="109.4593539592337" y="3" font-family="Helvetica Neue, Helvetica, Arial, sans-serif">PUBLISHED_TIME</text></g></g><g class="layer nodes"><g class="node" aria-label="graph-node-13" transform="translate(-175.51688540343415,-178.14236912810182)"><circle class="b-outline" cx="0" cy="0" r="25" fill="#F16667" stroke="#eb2728" stroke-width="2px"/><text class="caption" text-anchor="middle" pointer-events="none" x="0" y="5" font-size="10px" fill="#FFFFFF" font-family="Helvetica Neue, Helvetica, Arial, sans-serif"> Trigger</text></g><g class="node" aria-label="graph-node-12" transform="translate(-525.2387876735183,-172.22580954181583)"><circle class="b-outline" cx="0" cy="0" r="32.5" fill="#F79767" stroke="#f36924" stroke-width="2px"/><text class="caption" text-anchor="middle" pointer-events="none" x="0" y="5" font-size="10px" fill="#FFFFFF" font-family="Helvetica Neue, Helvetica, Arial, sans-serif"> Year</text></g><g class="node" aria-label="graph-node-14" transform="translate(98.1293671296335,-176.10378263950412)"><circle class="b-outline" cx="0" cy="0" r="25" fill="#4C8EDA" stroke="#2870c2" stroke-width="2px"/><text class="caption" text-anchor="middle" pointer-events="none" x="0" y="5" font-size="10px" fill="#FFFFFF" font-family="Helvetica Neue, Helvetica, Arial, sans-serif"> Argument</text></g><g class="node" aria-label="graph-node-15" transform="translate(-315.3252892857133,-178.75908172929422)"><circle class="b-outline" cx="0" cy="0" r="32.5" fill="#ECB5C9" stroke="#da7298" stroke-width="2px"/><text class="caption" text-anchor="middle" pointer-events="none" x="0" y="5" font-size="10px" fill="#2A2C34" font-family="Helvetica Neue, Helvetica, Arial, sans-serif"> EventType</text></g><g class="node" aria-label="graph-node-11" transform="translate(-404.5866217918109,-40.032013189005575)"><circle class="b-outline" cx="0" cy="0" r="32.5" fill="#604A0E" stroke="#423204" stroke-width="2px"/><text class="caption" text-anchor="middle" pointer-events="none" x="0" y="5" font-size="10px" fill="#FFFFFF" font-family="Helvetica Neue, Helvetica, Arial, sans-serif"> Article</text></g><g class="node" aria-label="graph-node-16" transform="translate(-170.64643306955605,-41.71614199301945)"><circle class="b-outline" cx="0" cy="0" r="32.5" fill="#F16667" stroke="#eb2728" stroke-width="2px"/><text class="caption" text-anchor="middle" pointer-events="none" x="0" y="5" font-size="10px" fill="#FFFFFF" font-family="Helvetica Neue, Helvetica, Arial, sans-serif"> IdTrigger</text></g><g class="node" aria-label="graph-node-17" transform="translate(-48.875248254339,-176.56994766444188)"><circle class="b-outline" cx="0" cy="0" r="32.5" fill="#57C7E3" stroke="#23b3d7" stroke-width="2px"/><text class="caption" text-anchor="middle" pointer-events="none" x="0" y="5" font-size="10px" fill="#2A2C34" font-family="Helvetica Neue, Helvetica, Arial, sans-serif"> RoleLabel</text></g><g class="node" aria-label="graph-node-10" transform="translate(-623.9999600365848,-38.49696110710151)"><circle class="b-outline" cx="0" cy="0" r="40" fill="#569480" stroke="#447666" stroke-width="2px"/><text class="caption" text-anchor="middle" pointer-events="none" x="0" y="5" font-size="10px" fill="#FFFFFF" font-family="Helvetica Neue, Helvetica, Arial, sans-serif"> Topic</text></g><g class="node" aria-label="graph-node-18" transform="translate(91.2062578305394,-42.89652680661226)"><circle class="b-outline" cx="0" cy="0" r="32.5" fill="#4C8EDA" stroke="#2870c2" stroke-width="2px"/><text class="caption" text-anchor="middle" pointer-events="none" x="0" y="5" font-size="10px" fill="#FFFFFF" font-family="Helvetica Neue, Helvetica, Arial, sans-serif"> IdArgument</text></g></g></svg>